<svg width="32" height="30" viewBox="0 0 32 30" fill="none" xmlns="http://www.w3.org/2000/svg">
<path d="M2.9622e-05 5.52972C9.81943e-05 3.47575 1.6285 1.79163 3.68131 1.72249L32.0001 0.768677L32.0001 6.23432C32 8.53292 29.9797 10.3079 27.7002 10.0121L0 6.417L2.9622e-05 5.52972Z" fill="#064ADB"/>
<path d="M3.00191 15.1263C3.35311 13.3399 4.91926 12.0516 6.73988 12.0516L29.2505 12.0516L28.816 16.0713C28.585 18.2084 26.6327 19.7313 24.5036 19.4351L2.74976 16.4089L3.00191 15.1263Z" fill="#064ADB"/>
<path d="M7.27991 24.9825C7.27991 23.0359 8.858 21.4578 10.8047 21.4578H24.7203V24.3824C24.7203 26.8513 22.4078 28.668 20.009 28.0836L7.27991 24.9825V24.9825Z" fill="#18181A"/>
</svg>
