<svg width="146" height="32" viewBox="0 0 146 32" fill="none" xmlns="http://www.w3.org/2000/svg">
<path d="M2.9622e-05 6.52972C9.81943e-05 4.47575 1.6285 2.79163 3.68131 2.72249L32.0001 1.76868L32.0001 7.23432C32 9.53292 29.9797 11.3079 27.7002 11.0121L0 7.417L2.9622e-05 6.52972Z" fill="#064ADB"/>
<path d="M3.00191 16.1263C3.35311 14.3399 4.91926 13.0516 6.73988 13.0516L29.2505 13.0516L28.816 17.0713C28.585 19.2084 26.6327 20.7313 24.5037 20.4351L2.74976 17.4089L3.00191 16.1263Z" fill="#064ADB"/>
<path d="M7.27991 25.9825C7.27991 24.0359 8.858 22.4578 10.8047 22.4578H24.7203V25.3824C24.7203 27.8513 22.4078 29.668 20.009 29.0836L7.27991 25.9825Z" fill="#18181A"/>
<path d="M39.3913 27V3.77437H41.2981V27H39.3913ZM51.8042 27.2501C50.5538 27.2501 49.5118 27.1667 48.6782 27C47.8447 26.8541 47.1674 26.5936 46.6464 26.2185C46.1254 25.8434 45.7294 25.3433 45.4585 24.7181C45.2085 24.072 45.0313 23.2906 44.9271 22.3736C44.8438 21.4359 44.8021 20.3314 44.8021 19.0601C44.8021 17.5389 44.8646 16.2572 44.9896 15.2153C45.1147 14.1524 45.3856 13.298 45.8024 12.652C46.24 12.006 46.9277 11.5371 47.8655 11.2453C48.8241 10.9536 50.1266 10.8077 51.7729 10.8077C52.9608 10.8077 53.9298 10.9015 54.68 11.089C55.4511 11.2558 56.0554 11.5371 56.4931 11.933C56.9515 12.3081 57.285 12.8187 57.4934 13.4647C57.7017 14.1108 57.8372 14.8922 57.8997 15.8092C57.9622 16.7261 57.9935 17.7994 57.9935 19.0289V19.6853H46.7089C46.7089 20.894 46.761 21.8839 46.8652 22.655C46.9902 23.426 47.2195 24.0304 47.5529 24.468C47.9072 24.9056 48.449 25.2078 49.1784 25.3745C49.9286 25.5412 50.9289 25.6246 52.1793 25.6246C52.7003 25.6246 53.2734 25.6038 53.8985 25.5621C54.5237 25.5204 55.1385 25.4787 55.7428 25.437C56.3472 25.3745 56.889 25.3016 57.3683 25.2182V26.8124C56.9515 26.8958 56.4305 26.9687 55.8054 27.0313C55.1802 27.1146 54.5237 27.1667 53.836 27.1876C53.1483 27.2292 52.471 27.2501 51.8042 27.2501ZM56.1492 18.7788V17.7473C56.1492 16.5594 56.0763 15.6112 55.9304 14.9027C55.7845 14.1941 55.5449 13.6627 55.2114 13.3084C54.878 12.9542 54.4195 12.7249 53.836 12.6207C53.2734 12.4957 52.5544 12.4332 51.6791 12.4332C50.5746 12.4332 49.689 12.5061 49.0221 12.652C48.3552 12.7979 47.8551 13.0792 47.5216 13.496C47.1882 13.8919 46.9694 14.465 46.8652 15.2153C46.761 15.9655 46.7089 16.9658 46.7089 18.2161H56.7431L56.1492 18.7788ZM65.8887 27.2501C64.6591 27.2501 63.638 27.125 62.8253 26.875C62.0125 26.6249 61.4082 26.1664 61.0122 25.4996C60.6371 24.8327 60.4495 23.8845 60.4495 22.655C60.4495 21.4671 60.585 20.5398 60.8559 19.8729C61.1268 19.1852 61.6061 18.6955 62.2938 18.4037C63.0024 18.112 63.9818 17.9661 65.2322 17.9661C65.4615 17.9661 65.8157 17.9765 66.295 17.9973C66.7743 17.9973 67.3266 18.0078 67.9518 18.0286C68.577 18.0494 69.2021 18.0703 69.8273 18.0911C70.4734 18.0911 71.0777 18.1015 71.6404 18.1224V16.9345C71.6404 15.8925 71.5778 15.0798 71.4528 14.4963C71.3278 13.8919 71.0777 13.4439 70.7026 13.1521C70.3483 12.8396 69.8273 12.652 69.1396 12.5895C68.4519 12.5061 67.5662 12.4644 66.4826 12.4644C66.0033 12.4644 65.451 12.4853 64.8258 12.527C64.2007 12.5478 63.5859 12.5895 62.9815 12.652C62.398 12.6937 61.9083 12.7458 61.5124 12.8083V11.2141C62.2417 11.089 63.0962 10.9953 64.0756 10.9327C65.0551 10.8494 66.0866 10.8077 67.1703 10.8077C68.2539 10.8077 69.1709 10.8702 69.9211 10.9953C70.6713 11.1203 71.2861 11.3183 71.7654 11.5892C72.2447 11.8601 72.6094 12.2248 72.8595 12.6833C73.1096 13.1417 73.2867 13.7148 73.3909 14.4025C73.4951 15.0902 73.5472 15.903 73.5472 16.8407V27H71.8592L71.7654 24.593H71.6091C71.2965 25.3849 70.8172 25.9789 70.1712 26.3748C69.546 26.7499 68.8479 26.9896 68.0768 27.0938C67.3266 27.198 66.5972 27.2501 65.8887 27.2501ZM66.4201 25.6246C67.0661 25.6246 67.6913 25.5933 68.2956 25.5308C68.9 25.4683 69.4314 25.3224 69.8898 25.0932C70.3483 24.8431 70.7026 24.4784 70.9527 23.9991C71.2027 23.4781 71.3799 22.9363 71.4841 22.3736C71.5883 21.811 71.6404 21.1754 71.6404 20.4668V19.4353H65.7324C64.8154 19.4353 64.1069 19.5082 63.6067 19.6541C63.1066 19.7999 62.7627 20.0917 62.5752 20.5293C62.3876 20.967 62.2938 21.6338 62.2938 22.5299C62.2938 23.3843 62.398 24.0408 62.6064 24.4993C62.8357 24.9369 63.242 25.2391 63.8255 25.4058C64.4299 25.5517 65.2947 25.6246 66.4201 25.6246ZM83.0903 27.2501C81.8608 27.2501 80.85 27.125 80.0581 26.875C79.2662 26.6249 78.6515 26.1977 78.2138 25.5933C77.7762 24.989 77.4636 24.1554 77.2761 23.0926C77.1094 22.0298 77.026 20.6752 77.026 19.0289C77.026 17.4034 77.1094 16.0593 77.2761 14.9964C77.4636 13.9128 77.7762 13.0688 78.2138 12.4644C78.6515 11.8601 79.2558 11.4329 80.0269 11.1828C80.8188 10.9327 81.8295 10.8077 83.059 10.8077C83.976 10.8077 84.7887 10.8806 85.4973 11.0265C86.2058 11.1724 86.8101 11.4225 87.3103 11.7767C87.8104 12.131 88.1856 12.6103 88.4356 13.2147H88.5919V3.77437H90.4987V27H88.842L88.7482 24.593H88.5919C88.2793 25.3641 87.8417 25.9372 87.279 26.3123C86.7164 26.6874 86.0703 26.9375 85.341 27.0625C84.6116 27.1876 83.8614 27.2501 83.0903 27.2501ZM83.778 25.5308C84.9867 25.5308 85.9453 25.3745 86.6538 25.0619C87.3832 24.7285 87.873 24.2075 88.123 23.499C88.3523 22.8321 88.4877 22.134 88.5294 21.4046C88.5711 20.6544 88.5919 19.7583 88.5919 18.7163C88.5919 17.9661 88.5711 17.2575 88.5294 16.5907C88.4877 15.9238 88.3731 15.3299 88.1856 14.8089C87.8938 13.9753 87.3832 13.3918 86.6538 13.0584C85.9453 12.7041 84.9554 12.527 83.6842 12.527C82.6631 12.527 81.8295 12.5999 81.1835 12.7458C80.5583 12.8917 80.079 13.1834 79.7456 13.621C79.433 14.0587 79.2141 14.7151 79.0891 15.5904C78.9849 16.4448 78.9328 17.591 78.9328 19.0289C78.9328 20.4668 78.9953 21.6234 79.1204 22.4987C79.2454 23.3531 79.4642 23.9991 79.7768 24.4367C80.1102 24.8744 80.6 25.1661 81.246 25.312C81.892 25.4579 82.736 25.5308 83.778 25.5308ZM95.5869 27V14.4025H92.5235V11.0578H95.5869V9.58859C95.5869 8.46326 95.6598 7.54632 95.8057 6.83778C95.9516 6.10839 96.2017 5.54573 96.5559 5.14978C96.9311 4.73299 97.4208 4.43081 98.0251 4.24326C98.6503 4.0557 99.4214 3.94108 100.338 3.89941C101.276 3.83689 102.391 3.80563 103.683 3.80563V6.80652C102.808 6.80652 102.11 6.82736 101.589 6.86903C101.068 6.91071 100.672 7.00449 100.401 7.15037C100.151 7.29625 99.9736 7.51506 99.8694 7.80681C99.7861 8.07773 99.7444 8.45284 99.7444 8.93215V11.0578H103.683V14.4025H99.7444V27H95.5869ZM108.732 27.2501C107.711 27.2501 106.846 27.1042 106.138 26.8124C105.429 26.4999 104.888 25.9997 104.512 25.312C104.158 24.6035 103.981 23.6761 103.981 22.5299C103.981 21.3004 104.127 20.3314 104.419 19.6228C104.71 18.8934 105.221 18.3724 105.95 18.0599C106.68 17.7264 107.69 17.5597 108.982 17.5597C109.191 17.5597 109.483 17.5701 109.858 17.591C110.233 17.591 110.66 17.6014 111.139 17.6222C111.619 17.6222 112.098 17.6326 112.577 17.6535C113.057 17.6535 113.494 17.6639 113.89 17.6847V17.0596C113.89 16.3719 113.838 15.83 113.734 15.4341C113.63 15.0381 113.432 14.7464 113.14 14.5588C112.848 14.3713 112.421 14.2566 111.858 14.215C111.296 14.1733 110.566 14.1524 109.67 14.1524C109.212 14.1524 108.68 14.1629 108.076 14.1837C107.472 14.2045 106.888 14.2358 106.325 14.2775C105.763 14.3192 105.315 14.3608 104.981 14.4025V11.2766C105.877 11.1307 106.846 11.0161 107.888 10.9327C108.93 10.8494 109.983 10.8077 111.046 10.8077C112.296 10.8077 113.338 10.8911 114.172 11.0578C115.026 11.2037 115.703 11.4433 116.203 11.7767C116.724 12.1102 117.11 12.5374 117.36 13.0584C117.631 13.5585 117.808 14.1629 117.891 14.8714C117.975 15.5591 118.016 16.351 118.016 17.2471V27H114.172L114.046 25.0619H113.796C113.442 25.708 112.973 26.1873 112.39 26.4999C111.827 26.8124 111.223 27.0104 110.577 27.0938C109.952 27.198 109.337 27.2501 108.732 27.2501ZM110.702 24.0616C111.16 24.0616 111.556 24.0304 111.89 23.9679C112.244 23.9053 112.546 23.8011 112.796 23.6553C113.067 23.4885 113.275 23.2801 113.421 23.0301C113.567 22.7592 113.682 22.4257 113.765 22.0298C113.849 21.6338 113.89 21.1545 113.89 20.5919V20.123H110.108C109.524 20.123 109.076 20.1646 108.764 20.248C108.451 20.3314 108.243 20.5189 108.138 20.8107C108.034 21.1024 107.982 21.54 107.982 22.1236C107.982 22.6654 108.045 23.0822 108.17 23.3739C108.295 23.6448 108.555 23.8324 108.951 23.9366C109.347 24.02 109.931 24.0616 110.702 24.0616ZM126.782 27.2501C126.136 27.2501 125.438 27.2292 124.688 27.1876C123.959 27.1459 123.24 27.0938 122.531 27.0313C121.823 26.9687 121.177 26.8958 120.593 26.8124V23.6865C120.906 23.7074 121.27 23.7386 121.687 23.7803C122.125 23.8011 122.594 23.822 123.094 23.8428C123.594 23.8637 124.084 23.8845 124.563 23.9053C125.042 23.9262 125.49 23.9366 125.907 23.9366C126.866 23.9366 127.553 23.8949 127.97 23.8116C128.408 23.7074 128.689 23.5406 128.814 23.3114C128.939 23.0613 129.002 22.7383 129.002 22.3424C129.002 21.9256 128.96 21.6234 128.877 21.4359C128.793 21.2275 128.637 21.092 128.408 21.0295C128.179 20.967 127.804 20.9044 127.283 20.8419L123.563 20.373C122.583 20.248 121.843 19.9875 121.343 19.5916C120.864 19.1956 120.531 18.6642 120.343 17.9973C120.176 17.3305 120.093 16.5386 120.093 15.6216C120.093 14.538 120.249 13.6836 120.562 13.0584C120.895 12.4123 121.343 11.933 121.906 11.6204C122.489 11.287 123.177 11.0682 123.969 10.964C124.782 10.8598 125.657 10.8077 126.595 10.8077C127.22 10.8077 127.866 10.8285 128.533 10.8702C129.2 10.9119 129.835 10.9744 130.44 11.0578C131.065 11.1203 131.586 11.2037 132.003 11.3079V14.4025C131.523 14.34 130.992 14.2983 130.409 14.2775C129.825 14.2358 129.252 14.2045 128.689 14.1837C128.127 14.142 127.626 14.1212 127.189 14.1212C126.397 14.1212 125.761 14.1524 125.282 14.215C124.824 14.2566 124.501 14.3817 124.313 14.5901C124.125 14.7985 124.032 15.1423 124.032 15.6216C124.032 15.9967 124.063 16.2885 124.125 16.4969C124.188 16.6844 124.323 16.8199 124.532 16.9033C124.74 16.9658 125.074 17.0283 125.532 17.0908L129.565 17.591C130.294 17.6743 130.909 17.841 131.409 18.0911C131.909 18.3412 132.274 18.7788 132.503 19.404C132.753 20.0292 132.878 20.9774 132.878 22.2486C132.878 23.3531 132.743 24.2388 132.472 24.9056C132.201 25.5517 131.784 26.0518 131.221 26.4061C130.679 26.7395 130.033 26.9583 129.283 27.0625C128.554 27.1876 127.72 27.2501 126.782 27.2501ZM136.321 27V14.4025H133.257V11.0578H136.321V6.43141H140.478V11.0578H144.104V14.4025H140.478V27H136.321Z" fill="#18181A"/>
</svg>
